# xmcd CD database file
#
# Track frame offsets:
#	150
#	11105
#	28423
#	39853
#	52802
#	72849
#	84506
#	99348
#	110573
#	122173
#	133182
#	148609
#	161791
#	176330
#	188582
#
# Disc length: 2590 seconds
#
# Revision: 0
# Processed by: cddbd v1.5.2PL0 Copyright (c) Steve Scherf et al.
# Submitted via: CDex 1.51
#
DISCID=c80a1c0f
DTITLE=Jim Stringer - Pick It Up
DYEAR=2016
DGENRE=Country
TTITLE0=Baker's Half Dozen
TTITLE1=I Crossed the Line
TTITLE2=You Could Have Fooled Me
TTITLE3=This Time It's Different
TTITLE4=Pick It Up
TTITLE5=Deep Fat Fry
TTITLE6=Bartender, Tell Me
TTITLE7=Note To Self
TTITLE8=(Chicken Pickin) The Hen, Pt. 1
TTITLE9=Wrong John
TTITLE10=I Am, Therefore I Drink
TTITLE11=It's Not What I Need
TTITLE12=Barely Legal
TTITLE13=That's What Friends Are For
TTITLE14=Jim Stringer - Pick It Up - Epilogue
EXTD=YEAR: 2016
EXTT0=
EXTT1=
EXTT2=
EXTT3=
EXTT4=
EXTT5=
EXTT6=
EXTT7=
EXTT8=
EXTT9=
EXTT10=
EXTT11=
EXTT12=
EXTT13=
EXTT14=
PLAYORDER=
